<svg width="167" height="157" viewBox="0 0 167 157" fill="none" xmlns="http://www.w3.org/2000/svg">
<g clip-path="url(#clip0_64_149)">
<rect width="167" height="156.429" fill="#51CA3C"/>
<path d="M78.0121 137.811C110.961 137.811 137.671 112.344 137.671 80.9288C137.671 49.5138 110.961 24.0469 78.0121 24.0469C45.0633 24.0469 18.353 49.5138 18.353 80.9288C18.353 112.344 45.0633 137.811 78.0121 137.811Z" stroke="#020202" stroke-width="10" stroke-miterlimit="10"/>
<path d="M56.7802 53.7051C55.0692 53.7051 53.3967 54.1887 51.974 55.0949C50.5513 56.001 49.4423 57.289 48.7872 58.796C48.1321 60.3029 47.9603 61.9613 48.2935 63.5613C48.6267 65.1614 49.45 66.6314 50.6593 67.7854C51.8685 68.9394 53.4095 69.7257 55.0874 70.0448C56.7653 70.364 58.5047 70.2017 60.0859 69.5784C61.667 68.9552 63.0189 67.899 63.9705 66.5433C64.9222 65.1877 65.431 63.5934 65.4325 61.9621C65.4325 59.7735 64.5212 57.6744 62.8988 56.1261C61.2764 54.5779 59.0756 53.7071 56.7802 53.7051ZM58.6734 61.9621C57.9353 61.9621 57.2138 61.7535 56.6002 61.3625C55.9865 60.9716 55.5082 60.4159 55.2258 59.7658C54.9434 59.1156 54.8695 58.4003 55.0134 57.7101C55.1574 57.0199 55.5128 56.386 56.0347 55.8884C56.5566 55.3908 57.2215 55.0519 57.9454 54.9147C58.6692 54.7774 59.4195 54.8478 60.1014 55.1171C60.7833 55.3864 61.3661 55.8424 61.7761 56.4275C62.1861 57.0126 62.405 57.7005 62.405 58.4042C62.405 59.3478 62.0118 60.2528 61.312 60.92C60.6122 61.5873 59.6631 61.9621 58.6734 61.9621Z" fill="#020202" stroke="#020202" stroke-width="3.42" stroke-miterlimit="10"/>
<path d="M99.2597 53.7051C97.5484 53.7051 95.8755 54.1889 94.4527 55.0954C93.0298 56.0019 91.9208 57.2903 91.2659 58.7977C90.611 60.3051 90.4397 61.9638 90.7736 63.5641C91.1074 65.1643 91.9315 66.6343 93.1415 67.788C94.3516 68.9417 95.8933 69.7274 97.5717 70.0457C99.2501 70.3641 100.99 70.2007 102.571 69.5763C104.152 68.9519 105.503 67.8945 106.454 66.5379C107.405 65.1813 107.912 63.5863 107.912 61.9547C107.91 59.7673 106.998 57.6702 105.376 56.1235C103.753 54.5768 101.554 53.7071 99.2597 53.7051ZM101.122 61.9547C100.382 61.9591 99.6581 61.754 99.0412 61.3654C98.4243 60.9769 97.9424 60.4223 97.6566 59.7722C97.3707 59.122 97.294 58.4055 97.4359 57.7137C97.5779 57.0219 97.9322 56.3858 98.4539 55.8863C98.9756 55.3868 99.6412 55.0463 100.366 54.908C101.091 54.7697 101.843 54.84 102.526 55.1097C103.209 55.3795 103.793 55.8367 104.203 56.4232C104.613 57.0098 104.831 57.6993 104.83 58.4042C104.83 59.344 104.44 60.2456 103.745 60.9122C103.05 61.5788 102.107 61.9562 101.122 61.9621V61.9547Z" fill="#020202" stroke="#020202" stroke-width="3.42" stroke-miterlimit="10"/>
<path d="M78.0121 101.092L102.412 101.174C102.358 112.116 91.3583 121.082 78.0121 121.082C64.6658 121.082 53.6118 112.056 53.6118 101.092H78.0121Z" fill="#020202" stroke="#020202" stroke-width="3.93" stroke-miterlimit="10"/>
<path d="M146.144 99.5033H138.008C137.468 99.5033 136.951 99.299 136.569 98.9353C136.188 98.5716 135.974 98.0783 135.974 97.564V64.3046C135.974 63.7902 136.188 63.2969 136.569 62.9332C136.951 62.5696 137.468 62.3652 138.008 62.3652H146.144C148.257 62.3672 150.284 63.1686 151.778 64.5936C153.273 66.0186 154.113 67.9507 154.115 69.9659V91.9026C154.113 93.9179 153.273 95.85 151.778 97.2749C150.284 98.6999 148.257 99.5013 146.144 99.5033Z" fill="#020202" stroke="#020202" stroke-width="3.63" stroke-miterlimit="10"/>
<path d="M9.38774 99.5033H17.5238C18.0632 99.5033 18.5806 99.299 18.962 98.9353C19.3435 98.5716 19.5578 98.0783 19.5578 97.564V64.3046C19.5578 63.7902 19.3435 63.2969 18.962 62.9332C18.5806 62.5696 18.0632 62.3652 17.5238 62.3652H9.38774C7.27413 62.3672 5.24769 63.1686 3.75314 64.5936C2.2586 66.0186 1.41806 67.9507 1.41599 69.9659V91.9026C1.41806 93.9179 2.2586 95.85 3.75314 97.2749C5.24769 98.6999 7.27413 99.5013 9.38774 99.5033Z" fill="#020202" stroke="#020202" stroke-width="3.63" stroke-miterlimit="10"/>
<path d="M162.095 78.9004H151.69V82.9655H162.095V78.9004Z" fill="#020202" stroke="#020202" stroke-width="3.63" stroke-miterlimit="10"/>
<path d="M162.017 82.6149V7.5332H160.429V82.6149H162.017Z" fill="#020202" stroke="#020202" stroke-width="4.54" stroke-miterlimit="10"/>
<path d="M161.227 9.3164C163.434 9.3164 165.224 7.60992 165.224 5.50488C165.224 3.39983 163.434 1.69336 161.227 1.69336C159.019 1.69336 157.229 3.39983 157.229 5.50488C157.229 7.60992 159.019 9.3164 161.227 9.3164Z" fill="#020202" stroke="#020202" stroke-width="4.54" stroke-miterlimit="10"/>
<path d="M107.935 146.59H48.0887C47.4492 146.59 46.9308 147.084 46.9308 147.694V148.104C46.9308 148.714 47.4492 149.208 48.0887 149.208H107.935C108.575 149.208 109.093 148.714 109.093 148.104V147.694C109.093 147.084 108.575 146.59 107.935 146.59Z" fill="#020202" stroke="#020202" stroke-width="2.36" stroke-miterlimit="10"/>
<path d="M99.6352 153.064H56.389C55.8446 153.064 55.4033 153.485 55.4033 154.004V154.743C55.4033 155.262 55.8446 155.683 56.389 155.683H99.6352C100.18 155.683 100.621 155.262 100.621 154.743V154.004C100.621 153.485 100.18 153.064 99.6352 153.064Z" fill="#020202" stroke="#020202" stroke-width="2.01" stroke-miterlimit="10"/>
</g>
<defs>
<clipPath id="clip0_64_149">
<rect width="167" height="156.429" fill="white"/>
</clipPath>
</defs>
</svg>
