<svg width="31" height="36" viewBox="0 0 31 36" fill="none" xmlns="http://www.w3.org/2000/svg">
<path d="M15.1543 5.94137L12.783 10.5029C12.0881 11.8395 11.7406 12.5079 11.7362 13.2313C11.7318 13.9548 12.071 14.6273 12.7494 15.9724L14.6249 19.6909C14.8173 20.0724 14.9136 20.2632 15.0664 20.2642C15.2193 20.2651 15.3178 20.0755 15.5149 19.6963L17.4359 16.0012C18.1308 14.6645 18.4782 13.9962 18.4827 13.2727C18.4871 12.5493 18.1479 11.8767 17.4695 10.5316L15.1543 5.94137ZM15.1543 5.94137L15.1722 3.01711" stroke="#33363F"/>
<path d="M25.2604 18.5735L21.6286 18.4796C19.8605 18.4339 18.9764 18.4111 18.2375 18.9043C17.4987 19.3975 17.0639 20.3008 16.1944 22.1073L14.7626 25.0818C14.6029 25.4136 14.523 25.5796 14.5823 25.7017C14.6416 25.8239 14.804 25.8281 15.1288 25.8365L18.0402 25.9117C19.8083 25.9574 20.6924 25.9803 21.4312 25.4871C22.1701 24.9939 22.6048 24.0906 23.4744 22.2841L25.2604 18.5735ZM25.2604 18.5735L27.4308 17.1247" stroke="#33363F"/>
<path d="M4.89395 18.4501L8.52664 18.4008C10.2952 18.3768 11.1795 18.3648 11.9122 18.8671C12.645 19.3693 13.0686 20.2778 13.9159 22.0949L15.3111 25.0868C15.4667 25.4205 15.5445 25.5874 15.4838 25.7088C15.423 25.8302 15.2606 25.8325 14.9357 25.8369L12.0236 25.8764C10.255 25.9004 9.37073 25.9124 8.638 25.4101C7.90528 24.9079 7.48162 23.9994 6.63432 22.1823L4.89395 18.4501ZM4.89395 18.4501L2.74149 16.9747" stroke="#33363F"/>
<path d="M15.0556 22.0234L14.9883 32.9894" stroke="#33363F"/>
</svg>
