<svg width="45" height="48" viewBox="0 0 45 48" fill="none" xmlns="http://www.w3.org/2000/svg">
<path d="M16.875 8H10.5C9.08579 8 8.37868 8 7.93934 8.43934C7.5 8.87868 7.5 9.58579 7.5 11V18" stroke="#222222" stroke-linecap="round"/>
<path d="M16.875 40H10.5C9.08579 40 8.37868 40 7.93934 39.5607C7.5 39.1213 7.5 38.4142 7.5 37V30" stroke="#222222" stroke-linecap="round"/>
<path d="M28.125 8H34.5C35.9142 8 36.6213 8 37.0607 8.43934C37.5 8.87868 37.5 9.58579 37.5 11V18" stroke="#222222" stroke-linecap="round"/>
<path d="M28.125 40H34.5C35.9142 40 36.6213 40 37.0607 39.5607C37.5 39.1213 37.5 38.4142 37.5 37V30" stroke="#222222" stroke-linecap="round"/>
</svg>
