<svg width="63" height="53" viewBox="0 0 63 53" fill="none" xmlns="http://www.w3.org/2000/svg">
<path d="M31.5 0C14.1253 0 0 11.8832 0 26.5C0 41.1168 14.1253 53 31.5 53C48.8747 53 63 41.1168 63 26.5C63 11.8832 48.8747 0 31.5 0ZM31.5 15.1747C36.9381 15.1747 41.3812 18.9126 41.3812 23.4875C41.3812 28.0623 36.938 31.8002 31.5 31.8002C26.062 31.8002 21.6188 28.0623 21.6188 23.4875C21.6188 18.9126 26.062 15.1747 31.5 15.1747ZM14.2579 42.5674V41.34C14.2579 37.8252 17.6399 34.9244 21.884 34.9244H41.1156C45.2936 34.9244 48.7416 37.7696 48.7416 41.34V42.5674C44.1657 46.0262 38.1309 48.1463 31.4995 48.1463C24.8689 48.1463 18.8344 46.0262 14.2586 42.5674H14.2579Z" fill="#FFF8F8"/>
</svg>
