<svg width="62" height="57" viewBox="0 0 62 57" fill="none" xmlns="http://www.w3.org/2000/svg">
<path fill-rule="evenodd" clip-rule="evenodd" d="M56.3426 56.9995H39.4476C36.3479 56.9995 33.7902 54.6483 33.7902 51.7984V36.2662C33.7902 33.4165 36.3477 31.0651 39.4476 31.0651H56.3426C59.4424 31.0651 62 33.4163 62 36.2662V51.7984C62.0005 54.6487 59.4429 57 56.3432 57L56.3426 56.9995ZM50.375 26.2912C48.5148 28.0013 45.415 28.0013 43.5548 26.2912L33.3251 16.9577C31.4649 15.2476 31.4649 12.3978 33.3251 10.6877L43.5554 1.28258C45.4155 -0.427525 48.5154 -0.427525 50.3755 1.28258L60.6047 10.6877C62.4649 12.3978 62.4649 15.2476 60.6047 16.9577L50.375 26.2912ZM22.5524 56.9995H5.65737C2.55764 56.9995 0 54.6483 0 51.7984V36.2662C0 33.4165 2.55751 31.0651 5.65737 31.0651H22.5524C25.6521 31.0651 28.2098 33.4163 28.2098 36.2662V51.7984C28.2103 54.6487 25.6527 57 22.553 57L22.5524 56.9995ZM22.5524 25.935H5.65737C2.55764 25.935 0 23.5837 0 20.7339V5.20165C0 2.35195 2.55751 0.00060383 5.65737 0.00060383H22.5524C25.6521 0.00060383 28.2098 2.35182 28.2098 5.20165V20.7339C28.2103 23.5841 25.6527 25.9355 22.553 25.9355L22.5524 25.935Z" fill="#FDF6F6"/>
</svg>
