<svg width="20" height="20" viewBox="0 0 20 20" fill="none" xmlns="http://www.w3.org/2000/svg">
<path fill-rule="evenodd" clip-rule="evenodd" d="M18.175 19.9998H12.725C11.7251 19.9998 10.9001 19.1748 10.9001 18.1749V12.725C10.9001 11.7251 11.7251 10.9 12.725 10.9H18.175C19.175 10.9 20 11.725 20 12.725V18.1749C20.0002 19.175 19.1751 20 18.1752 20L18.175 19.9998ZM16.25 9.22498C15.6499 9.82502 14.65 9.82502 14.0499 9.22498L10.75 5.95008C10.15 5.35004 10.15 4.3501 10.75 3.75007L14.0501 0.450027C14.6502 -0.150009 15.6501 -0.150009 16.2502 0.450027L19.5499 3.75007C20.15 4.3501 20.15 5.35004 19.5499 5.95008L16.25 9.22498ZM7.27497 19.9998H1.82496C0.825046 19.9998 0 19.1748 0 18.1749V12.725C0 11.7251 0.825002 10.9 1.82496 10.9H7.27497C8.27488 10.9 9.09993 11.725 9.09993 12.725V18.1749C9.10011 19.175 8.27506 20 7.27515 20L7.27497 19.9998ZM7.27497 9.09999H1.82496C0.825046 9.09999 0 8.275 0 7.27506V1.82514C0 0.825244 0.825002 0.00021187 1.82496 0.00021187H7.27497C8.27488 0.00021187 9.09993 0.825199 9.09993 1.82514V7.27506C9.10011 8.27513 8.27506 9.10016 7.27515 9.10016L7.27497 9.09999Z" fill="black"/>
</svg>
