<svg width="62" height="62" viewBox="0 0 62 62" fill="none" xmlns="http://www.w3.org/2000/svg">
<g filter="url(#filter0_d_64_274)">
<path d="M4 12C4 5.37258 9.37258 0 16 0H46C52.6274 0 58 5.37258 58 12V42C58 48.6274 52.6274 54 46 54H16C9.37258 54 4 48.6274 4 42V12Z" fill="url(#paint0_linear_64_274)" shape-rendering="crispEdges"/>
<path d="M4.5 12C4.5 5.64873 9.64873 0.5 16 0.5H46C52.3513 0.5 57.5 5.64873 57.5 12V42C57.5 48.3513 52.3513 53.5 46 53.5H16C9.64873 53.5 4.5 48.3513 4.5 42V12Z" stroke="#D9D9D9" shape-rendering="crispEdges"/>
</g>
<defs>
<filter id="filter0_d_64_274" x="0" y="0" width="62" height="62" filterUnits="userSpaceOnUse" color-interpolation-filters="sRGB">
<feFlood flood-opacity="0" result="BackgroundImageFix"/>
<feColorMatrix in="SourceAlpha" type="matrix" values="0 0 0 0 0 0 0 0 0 0 0 0 0 0 0 0 0 0 127 0" result="hardAlpha"/>
<feOffset dy="4"/>
<feGaussianBlur stdDeviation="2"/>
<feComposite in2="hardAlpha" operator="out"/>
<feColorMatrix type="matrix" values="0 0 0 0 0 0 0 0 0 0 0 0 0 0 0 0 0 0 0.25 0"/>
<feBlend mode="normal" in2="BackgroundImageFix" result="effect1_dropShadow_64_274"/>
<feBlend mode="normal" in="SourceGraphic" in2="effect1_dropShadow_64_274" result="shape"/>
</filter>
<linearGradient id="paint0_linear_64_274" x1="31" y1="0" x2="31" y2="54" gradientUnits="userSpaceOnUse">
<stop stop-color="#09CC40"/>
<stop offset="1" stop-color="#161716" stop-opacity="0.71"/>
</linearGradient>
</defs>
</svg>
