<svg width="18" height="16" viewBox="0 0 18 16" fill="none" xmlns="http://www.w3.org/2000/svg">
<path fill-rule="evenodd" clip-rule="evenodd" d="M2.33963 2.03581H15.6729V7.03581H17.3396V2.03581C17.3396 1.11533 16.5934 0.369141 15.6729 0.369141H2.33963C1.41916 0.369141 0.672974 1.11533 0.672974 2.03581V10.3692C0.672974 11.2896 1.41916 12.0358 2.33963 12.0358H7.33963V10.3692H2.33963V2.03581ZM9.0063 9.70249C9.0063 9.15019 9.45404 8.70249 10.0063 8.70249H16.3396C16.8919 8.70249 17.3396 9.15019 17.3396 9.70249V14.3692C17.3396 14.9214 16.8919 15.3692 16.3396 15.3692H10.0063C9.45404 15.3692 9.0063 14.9214 9.0063 14.3692V9.70249ZM6.92297 4.63997V5.63081L5.17713 3.88498C5.06463 3.77248 4.90797 3.70248 4.73547 3.70248C4.39047 3.70248 4.11047 3.98164 4.11047 4.32748C4.11047 4.49998 4.18047 4.65581 4.2938 4.76914L6.0388 6.51498H5.04797C4.70297 6.51498 4.42297 6.79414 4.42297 7.13999C4.42297 7.48499 4.70297 7.76499 5.04797 7.76499H7.54797C7.89297 7.76499 8.17297 7.48499 8.17297 7.13999V4.63997C8.17297 4.29414 7.89297 4.01498 7.54797 4.01498C7.20297 4.01498 6.92297 4.29414 6.92297 4.63997Z" fill="white"/>
</svg>
