<svg width="16" height="16" viewBox="0 0 16 16" fill="none" xmlns="http://www.w3.org/2000/svg">
<path fill-rule="evenodd" clip-rule="evenodd" d="M11.3397 2.20182H12.6612L9.9171 4.94592C9.59168 5.27136 9.59168 5.799 9.9171 6.12444C10.2425 6.44991 10.7702 6.44991 11.0956 6.12444L13.8397 3.38037V4.70182C13.8397 5.16206 14.2128 5.53516 14.673 5.53516C15.1333 5.53516 15.5063 5.16206 15.5063 4.70182V1.36849C15.5063 1.14747 15.4185 0.935515 15.2623 0.779231C15.106 0.622956 14.894 0.535156 14.673 0.535156H11.3397C10.8794 0.535156 10.5063 0.908256 10.5063 1.36849C10.5063 1.82872 10.8794 2.20182 11.3397 2.20182ZM2.17301 4.70184V3.38032L4.91711 6.12442C5.24256 6.44982 5.77019 6.44982 6.09563 6.12442C6.4211 5.79899 6.4211 5.27135 6.09563 4.94591L3.35155 2.20183L4.67301 2.20184C5.13325 2.20184 5.50635 1.82874 5.50635 1.36851C5.50635 0.908265 5.13325 0.535173 4.67301 0.535173H1.33968C1.11866 0.535173 0.906706 0.622965 0.750423 0.779248C0.594148 0.935523 0.506348 1.14749 0.506348 1.36851V4.70184C0.506348 5.16207 0.879448 5.53516 1.33968 5.53516C1.79991 5.53516 2.17301 5.16207 2.17301 4.70184ZM4.67303 13.8685H3.35151L6.09561 11.1244C6.42101 10.799 6.42101 10.2713 6.09561 9.94591C5.77018 9.62049 5.24254 9.62049 4.91711 9.94591L2.17302 12.69V11.3685C2.17302 10.9082 1.79993 10.5352 1.33969 10.5352C0.879456 10.5352 0.506364 10.9082 0.506364 11.3685V14.7018C0.506364 14.9228 0.594156 15.1348 0.750439 15.2911C0.906714 15.4474 1.11868 15.5352 1.3397 15.5352H4.67303C5.13326 15.5352 5.50636 15.1621 5.50636 14.7018C5.50636 14.2416 5.13326 13.8685 4.67303 13.8685ZM13.8397 12.69V11.3685C13.8397 10.9082 14.2128 10.5352 14.673 10.5352C15.1333 10.5352 15.5063 10.9082 15.5063 11.3685V14.7018C15.5063 14.9228 15.4185 15.1348 15.2623 15.2911C15.106 15.4474 14.894 15.5352 14.673 15.5352H11.3397C10.8794 15.5352 10.5063 15.1621 10.5063 14.7018C10.5063 14.2416 10.8794 13.8685 11.3397 13.8685H12.6612L9.9171 11.1244C9.5916 10.799 9.5916 10.2713 9.9171 9.94591C10.2425 9.62049 10.7702 9.62049 11.0956 9.94591L13.8397 12.69Z" fill="white"/>
</svg>
