<svg width="18" height="18" viewBox="0 0 18 18" fill="none" xmlns="http://www.w3.org/2000/svg">
<path fill-rule="evenodd" clip-rule="evenodd" d="M15.673 9.0358C15.673 12.1422 13.5485 14.7524 10.673 15.4924V17.2024C14.4768 16.4303 17.3397 13.0674 17.3397 9.0358C17.3397 5.00418 14.4768 1.64126 10.673 0.869141V2.57914C13.5485 3.31922 15.673 5.92938 15.673 9.0358ZM14.0064 9.0358C14.0064 6.85875 12.615 5.00668 10.673 4.32029V6.14839C11.6694 6.72473 12.3397 7.80197 12.3397 9.0358C12.3397 10.2695 11.6694 11.3468 10.673 11.9231V13.7513C12.615 13.0649 14.0064 11.2128 14.0064 9.0358ZM4.49453 5.70576H2.3397C1.41923 5.70576 0.673035 6.45196 0.673035 7.37247V10.7058C0.673035 11.6262 1.41923 12.3725 2.3397 12.3725H4.49453L7.58378 16.295C8.10878 16.82 9.00637 16.4482 9.00637 15.7058V2.37243C9.00637 1.63001 8.10878 1.25821 7.58378 1.78317L4.49453 5.70576Z" fill="white"/>
</svg>
