<svg width="18" height="14" viewBox="0 0 18 14" fill="none" xmlns="http://www.w3.org/2000/svg">
<path fill-rule="evenodd" clip-rule="evenodd" d="M15.673 2.03581H2.3397V12.0358H15.673V2.03581ZM2.3397 0.369141C1.41923 0.369141 0.673035 1.11533 0.673035 2.03581V12.0358C0.673035 12.9563 1.41923 13.7025 2.3397 13.7025H15.673C16.5935 13.7025 17.3397 12.9563 17.3397 12.0358V2.03581C17.3397 1.11533 16.5935 0.369141 15.673 0.369141H2.3397ZM8.57803 7.72231C8.48495 8.30372 8.24462 8.78364 7.86528 9.15056C7.47937 9.52189 6.98061 9.71031 6.38373 9.71031C5.64878 9.71031 5.0605 9.45731 4.63612 8.95772C4.2178 8.46356 4.00637 7.78347 4.00637 6.93372C4.00637 6.01589 4.24663 5.29586 4.72008 4.79134C5.13992 4.34551 5.68013 4.11914 6.32607 4.11914C7.18496 4.11914 7.82537 4.42343 8.22945 5.02313C8.44853 5.35652 8.56887 5.69781 8.58662 6.03664L8.5942 6.18606H8.44095H7.4252H7.31293L7.2841 6.08047C7.22492 5.85614 7.15107 5.68797 7.06305 5.58039C6.90828 5.39256 6.68217 5.30128 6.36805 5.30128C6.05647 5.30128 5.81519 5.43297 5.63258 5.70472C5.43987 5.99122 5.34224 6.40947 5.34224 6.94997C5.34224 7.48606 5.44341 7.88797 5.6427 8.14447C5.83593 8.39347 6.07316 8.51481 6.36755 8.51481C6.67053 8.51481 6.8936 8.41422 7.05041 8.20564C7.13943 8.09072 7.21531 7.90872 7.27702 7.66656L7.30332 7.55956H7.41812H8.43387H8.60378L8.57803 7.72231ZM13.2678 9.15056C13.6472 8.78364 13.887 8.30372 13.98 7.72231L14.0063 7.55956H13.8364H12.8202H12.7064L12.6795 7.66656C12.6184 7.90872 12.542 8.09072 12.4525 8.20564C12.2961 8.41422 12.0725 8.51481 11.7695 8.51481C11.4757 8.51481 11.239 8.39347 11.0457 8.14447C10.8465 7.88797 10.7443 7.48606 10.7443 6.94997C10.7443 6.40947 10.8424 5.99122 11.0356 5.70472C11.2172 5.43297 11.4585 5.30128 11.7706 5.30128C12.0842 5.30128 12.3113 5.39256 12.465 5.58039C12.5531 5.68797 12.628 5.85614 12.6871 6.08047L12.715 6.18606H12.8283H13.8435H13.9962L13.9896 6.03664C13.9709 5.69781 13.851 5.35652 13.6315 5.02313C13.2274 4.42343 12.588 4.11914 11.7291 4.11914C11.0821 4.11914 10.5425 4.34551 10.1226 4.79134C9.64862 5.29586 9.40887 6.01589 9.40887 6.93372C9.40887 7.78347 9.62037 8.46356 10.0381 8.95772C10.463 9.45731 11.0508 9.71031 11.7863 9.71031C12.3831 9.71031 12.8814 9.52189 13.2678 9.15056Z" fill="white"/>
</svg>
