<svg width="17" height="18" viewBox="0 0 17 18" fill="none" xmlns="http://www.w3.org/2000/svg">
<path fill-rule="evenodd" clip-rule="evenodd" d="M7.673 0.701172C6.75252 0.701172 6.00633 1.44736 6.00633 2.36784V3.76253C5.72116 3.898 5.44873 4.05593 5.19131 4.23402L3.97585 3.53228C3.18735 3.07703 2.16641 3.34833 1.70666 4.14465L0.871579 5.59104C0.413389 6.38464 0.68237 7.40428 1.47585 7.8624L2.69167 8.56435C2.6793 8.71944 2.673 8.87624 2.673 9.03448C2.673 9.19278 2.6793 9.34958 2.69167 9.50468L1.47585 10.2066C0.68237 10.6648 0.413389 11.6844 0.871579 12.478L1.70666 13.9244C2.16641 14.7207 3.18735 14.992 3.97585 14.5368L5.19132 13.835C5.44873 14.0131 5.72116 14.171 6.00633 14.3065V15.7012C6.00633 16.6217 6.75252 17.3679 7.673 17.3679H9.33962C10.2601 17.3679 11.0063 16.6217 11.0063 15.7012V14.3065C11.2914 14.1711 11.5637 14.0132 11.821 13.8352L13.0361 14.5368C13.8246 14.992 14.8456 14.7207 15.3053 13.9244L16.1404 12.478C16.5986 11.6844 16.3296 10.6648 15.5361 10.2066L14.3209 9.50498C14.3333 9.34978 14.3396 9.19288 14.3396 9.03448C14.3396 8.87611 14.3333 8.71919 14.3209 8.56399L15.5361 7.8624C16.3296 7.40428 16.5986 6.38464 16.1404 5.59104L15.3053 4.14465C14.8456 3.34833 13.8246 3.07703 13.0361 3.53228L11.821 4.23381C11.5637 4.0558 11.2914 3.89795 11.0063 3.76253V2.36784C11.0063 1.44736 10.2601 0.701172 9.33962 0.701172H7.673ZM11.0063 9.03448C11.0063 10.4152 9.88702 11.5345 8.50632 11.5345C7.12562 11.5345 6.00633 10.4152 6.00633 9.03448C6.00633 7.65379 7.12562 6.53451 8.50632 6.53451C9.88702 6.53451 11.0063 7.65379 11.0063 9.03448Z" fill="white"/>
</svg>
