<svg width="28" height="28" viewBox="0 0 28 28" fill="none" xmlns="http://www.w3.org/2000/svg">
<path d="M13.9999 18.084C16.5782 18.084 18.6666 15.9957 18.6666 13.4173V7.00065C18.6666 4.42232 16.5782 2.33398 13.9999 2.33398C11.4216 2.33398 9.33325 4.42232 9.33325 7.00065V13.4173C9.33325 15.9957 11.4216 18.084 13.9999 18.084Z" stroke="black" stroke-width="1.41231" stroke-linecap="round" stroke-linejoin="round"/>
<path d="M5.0751 11.2578V13.2411C5.0751 18.1645 9.07677 22.1661 14.0001 22.1661C18.9234 22.1661 22.9251 18.1645 22.9251 13.2411V11.2578" stroke="black" stroke-width="1.41231" stroke-linecap="round" stroke-linejoin="round"/>
<path d="M12.3783 7.50164C13.4283 7.11664 14.5716 7.11664 15.6216 7.50164" stroke="black" stroke-width="1.41231" stroke-linecap="round" stroke-linejoin="round"/>
<path d="M13.0667 9.97406C13.6851 9.81073 14.3267 9.81073 14.9451 9.97406" stroke="black" stroke-width="1.41231" stroke-linecap="round" stroke-linejoin="round"/>
<path d="M14 22.166V25.666" stroke="black" stroke-width="1.41231" stroke-linecap="round" stroke-linejoin="round"/>
</svg>
